{"title":"Dot.And.Keeto.1986.DVDRip.XviD-SPRiNTER","uid":6843215,"size":744751125,"categoryP":"video","categoryS":"movies","magnet":"?xt=urn:btih:43df3de4753646d7d3ddf7a6da555b400f665e05&amp;dn=Dot.And.Keeto.1986.DVDRip.XviD-SPRiNTER&amp;tr=udp%3A%2F%2Ftracker.openbittorrent.com%3A80&amp;tr=udp%3A%2F%2Fopen.demonii.com%3A1337&amp;tr=udp%3A%2F%2Ftracker.coppersurfer.tk%3A6969&amp;tr=udp%3A%2F%2Fexodus.desync.com%3A6969","seeders":0,"leechers":1,"uploader":"sceneline","files":55,"time":1322234635,"description":"- &lt;a href=&quot;\nhttp://www.Speed.Cd&quot; rel=&quot;nofollow&quot; target=&quot;_NEW&quot;&gt;\nhttp://www.Speed.Cd&lt;/a&gt;      fast  and The Hottest Private Tracker on the net\n\n   signup is open now\n\nPlease Seed back to make the speed Faster!!!\n\n------------------nfo--------------------------\n-                                                     \n                                                   \n                                                         \n                                                          \n                                                           \n                                                          \n                                                          \n                                                          \n                                                           \n                                                         \n                                                          \n                                                        \n                                                      \n                                     \n                                                 \n                                                   \n                                             \n                                              \n                                                     \n                                                      \n                                                      \n                                                      \n                                                    \n                                                     \n                                                   \n                                                     \n                                                     \n                                                      \n                                                     \n                                                      \n                                                    \n                 ARTiCHOKE                        \n                                                \n                      \n                                                        \n                                                      \n                                                      \n                                               \n                                          \n                                                   \n                                            \n                                                    \n                                                       \n                                                        \n                                                      \n                                                \n                                                        \n                                                 \n                                              \n                                                  \n                                                \n                                                  \n                                        \n\n      \n                                \n      SPRiNTER proudly presents...     \n                                \n      \n \n Dot.And.Keeto.1986.DVDRip.XviD-SPRiNTER\n\n Date: 2011.11\n &lt;a href=&quot; http://www.imdb.com/title/tt0090960/&quot; rel=&quot;nofollow&quot; target=&quot;_NEW&quot;&gt; http://www.imdb.com/title/tt0090960/&lt;/a&gt;\n\n \n\n      \n                 \n      Release notes     \n                 \n      \n\n Enjoy!\n\n\n      \n          \n       News      \n          \n      \n\n We are currently looking for:\n - Looking for talented xvid-encoders with time &amp; addiction :)\n - Suppliers who can provide pre-retail or retail dvds with decent upload!\n - 50Mbit+ dump providers with 1TB+ free space.\n\n sprinter@hush.com\n\n\n      \n           \n     Greetings    \n           \n      \n\n\nNTX FiCO HNR CiNEFiLE AEN HUMANiSM TASTE 0MNiDVD\n\n\n      \n           \n      Details     \n           \n      \n\nFormat                                   : AVI\nFormat/Info                              : Audio Video Interleave\nFile size                                : 701 MiB\nDuration                                 : 1h 10mn\nOverall bit rate mode                    : Variable\nOverall bit rate                         : 1 396 Kbps\nWriting application                      : VirtualDubMod 1.5.10.2 (build 2540/release)\nWriting library                          : VirtualDubMod build 2540/release\n\nVideo\nID                                       : 0\nFormat                                   : MPEG-4 Visual\nFormat profile                           : Advanced Simple@L5\nFormat settings, BVOP                    : 2\nFormat settings, QPel                    : No\nFormat settings, GMC                     : No warppoints\nFormat settings, Matrix                  : Default (H.263)\nCodec ID                                 : XVID\nCodec ID/Hint                            : XviD\nDuration                                 : 1h 10mn\nBit rate                                 : 1 322 Kbps\nWidth                                    : 576 pixels\nHeight                                   : 432 pixels\nDisplay aspect ratio                     : 4:3\nFrame rate                               : 25.000 fps\nColor space                              : YUV\nChroma subsampling                       : 4:2:0\nBit depth                                : 8 bits\nScan type                                : Progressive\nCompression mode                         : Lossy\nBits/(Pixel*Frame)                       : 0.212\nStream size                              : 664 MiB (95%)\nWriting library                          : XviD 61\n\nAudio\nID                                       : 1\nFormat                                   : MPEG Audio\nFormat version                           : Version 1\nFormat profile                           : Layer 3\nCodec ID                                 : 55\nCodec ID/Hint                            : MP3\nDuration                                 : 1h 10mn\nBit rate mode                            : Variable\nBit rate                                 : 61.6 Kbps\nMinimum bit rate                         : 40.0 Kbps\nChannel(s)                               : 1 channel\nSampling rate                            : 48.0 KHz\nCompression mode                         : Lossy\nStream size                              : 30.9 MiB (4%)\nAlignment                                : Aligned on interleaves\nInterleave, duration                     : 24 ms (0.60 video frame)\nInterleave, preload duration             : 361 ms\nWriting library                          : LAME3.95 \nEncoding settings                        : -m m -V 5 -q 3 -lowpass 17 --vbr-old -b 40","torrent":{"xt":"urn:btih:43df3de4753646d7d3ddf7a6da555b400f665e05","amp;dn":"Dot.And.Keeto.1986.DVDRip.XviD-SPRiNTER","amp;tr":["udp%3A%2F%2Ftracker.openbittorrent.com%3A80","udp%3A%2F%2Fopen.demonii.com%3A1337","udp%3A%2F%2Ftracker.coppersurfer.tk%3A6969","udp%3A%2F%2Fexodus.desync.com%3A6969"],"infoHash":"43df3de4753646d7d3ddf7a6da555b400f665e05","infoHashBuffer":{"type":"Buffer","data":[67,223,61,228,117,54,70,215,211,221,247,166,218,85,91,64,15,102,94,5]},"announce":[],"urlList":[]}}